<!--?xml version="1.0" encoding="utf-8"?-->
<!-- Generator: Adobe Illustrator 16.0.0, SVG Export Plug-In . SVG Version: 6.00 Build 0)  -->
<svg version="1.2" baseProfile="tiny" id="Layer_1" xmlns="http://www.w3.org/2000/svg" xmlns:xlink="http://www.w3.org/1999/xlink" x="0px" y="0px" viewBox="0 0 218.5 37" xml:space="preserve">
<g>
	<path fill="#202020" d="M27.465,20.882c-1.358-1.569-3.182-2.602-5.472-3.096c0.634-0.283,1.075-0.486,1.321-0.611
		c0.246-0.122,0.688-0.43,1.322-0.924c1.868-1.412,2.802-3.566,2.802-6.458c0-2.4-0.828-4.553-2.484-6.459
		C24.036,2.31,22.671,1.499,20.856,0.9C19.041,0.299,16.882,0,14.38,0H0v37h16.177c5.076,0,8.636-1.146,10.68-3.44
		c1.762-1.977,2.644-4.254,2.644-6.829C29.5,24.402,28.821,22.452,27.465,20.882z M8.247,6.988h3.965
		c2.432,0,4.158,0.263,5.181,0.792c1.022,0.531,1.534,1.613,1.534,3.256c0,1.641-0.555,2.709-1.666,3.201
		c-1.11,0.495-2.812,0.741-5.101,0.741H8.247V6.988z M19.217,29.14c-1.181,0.582-2.953,0.873-5.313,0.873H8.247v-8.523h4.864
		c2.75,0,4.749,0.275,6,0.822c1.25,0.547,1.876,1.676,1.876,3.387C20.988,27.412,20.397,28.556,19.217,29.14z"></path>
</g>
<g>
	<g>
		<path fill="#202020" d="M69.835,23.767c4.716-1.728,7.074-5.559,7.074-11.486c0-4.306-1.232-7.428-3.697-9.37
			C70.748,0.97,66.625,0,60.846,0H46.75v37h8.298V25.194h5.745L69.038,37H79.25L69.835,23.767z M68.453,12.306
			c0,1.994-0.515,3.45-1.543,4.366c-1.028,0.918-2.961,1.378-5.798,1.378h-6.064V7.092h6.223c2.66,0,4.521,0.371,5.585,1.111
			C67.921,8.944,68.453,10.312,68.453,12.306z"></path>
	</g>
</g>
<g>
	<g>
		<path fill="#202020" d="M157.626,23.556L167.051,0H176l-14.879,37h-6.989L139.25,0h8.949L157.626,23.556z"></path>
	</g>
</g>
<g>
	<g>
		<path fill="#202020" d="M217.916,0v7.356h-18.413v7.622h16.563v7.041h-16.563v7.677H218.5V37h-27.25V0H217.916z"></path>
	</g>
</g>
<g>
	<g>
		<path fill="#202020" d="M107,0H115l16,37h-8.796l-11.179-25.991L99.795,37H91L107,0z"></path>
	</g>
</g>
</svg>